<svg xmlns="http://www.w3.org/2000/svg" xmlns:xlink="http://www.w3.org/1999/xlink" width="576" zoomAndPan="magnify" viewBox="0 0 432 287.999989" height="384" preserveAspectRatio="xMidYMid meet" version="1.0"><defs><clipPath id="2721996516"><path d="M 0.558594 109 L 172 109 L 172 278.863281 L 0.558594 278.863281 Z M 0.558594 109 " clip-rule="nonzero"/></clipPath><clipPath id="7781396918"><path d="M 41 72.695312 L 92 72.695312 L 92 149 L 41 149 Z M 41 72.695312 " clip-rule="nonzero"/></clipPath><clipPath id="081e02022b"><path d="M 39 11 L 152 11 L 152 176.308594 L 39 176.308594 Z M 39 11 " clip-rule="nonzero"/></clipPath><clipPath id="325ca10850"><path d="M 116 0.785156 L 189 0.785156 L 189 103 L 116 103 Z M 116 0.785156 " clip-rule="nonzero"/></clipPath><clipPath id="708d348760"><rect x="0" width="190" y="0" height="280"/></clipPath></defs><g transform="matrix(1, 0, 0, 1, 130, 4)"><g clip-path="url(#708d348760)"><g clip-path="url(#2721996516)"><path fill="#003e67" d="M 153.589844 279.214844 L 18.53125 279.214844 C 8.734375 279.214844 0.636719 271.234375 0.636719 261.4375 L 0.636719 126.984375 C 0.636719 117.191406 8.734375 109.089844 18.53125 109.089844 L 47.308594 109.089844 C 47.910156 109.089844 48.394531 109.453125 48.757812 109.933594 C 49 110.296875 49 110.902344 48.757812 111.386719 C 46.460938 116.464844 45.25 120.09375 45.25 122.390625 C 45.25 135.085938 55.53125 145.363281 68.226562 145.363281 C 71.128906 145.363281 73.90625 144.878906 76.566406 143.789062 C 76.929688 143.671875 77.535156 143.671875 77.898438 143.910156 C 78.382812 144.152344 78.625 144.515625 78.746094 145 C 80.558594 156.125 90.109375 164.105469 101.355469 164.105469 C 114.050781 164.105469 124.328125 153.828125 124.328125 141.128906 C 124.328125 135.207031 116.46875 121.421875 110.542969 111.628906 C 110.183594 111.023438 110.183594 110.417969 110.542969 109.933594 C 110.785156 109.453125 111.269531 109.089844 111.875 109.089844 L 153.589844 109.089844 C 163.382812 109.089844 171.363281 117.191406 171.363281 126.984375 L 171.363281 261.4375 C 171.363281 271.234375 163.382812 279.214844 153.589844 279.214844 Z M 89.867188 113.925781 C 89.746094 113.925781 89.746094 113.925781 89.746094 113.925781 C 89.144531 113.925781 88.660156 113.5625 88.417969 112.957031 C 88.175781 112.472656 87.933594 111.992188 87.691406 111.386719 C 87.449219 110.902344 87.449219 110.296875 87.691406 109.933594 C 88.054688 109.453125 88.539062 109.089844 89.144531 109.089844 L 90.835938 109.089844 C 91.441406 109.089844 91.925781 109.453125 92.167969 109.933594 C 92.527344 110.417969 92.527344 111.023438 92.167969 111.628906 L 91.199219 113.199219 C 90.957031 113.683594 90.351562 113.925781 89.867188 113.925781 Z M 89.867188 113.925781 " fill-opacity="1" fill-rule="evenodd"/></g><path fill="#b0ddef" d="M 86 269.902344 C 44.285156 269.902344 10.308594 235.925781 10.308594 194.210938 C 10.308594 168.457031 23.246094 144.757812 44.769531 130.730469 C 45.132812 130.492188 45.613281 130.371094 46.097656 130.613281 C 46.582031 130.730469 46.945312 131.09375 47.066406 131.457031 C 50.8125 139.921875 59.035156 145.363281 68.226562 145.363281 C 71.128906 145.363281 73.90625 144.878906 76.566406 143.789062 C 76.929688 143.671875 77.535156 143.671875 77.898438 143.910156 C 78.382812 144.152344 78.625 144.515625 78.746094 145 C 80.558594 156.125 90.109375 164.105469 101.355469 164.105469 C 114.050781 164.105469 124.328125 153.828125 124.328125 141.128906 C 124.328125 138.832031 123.121094 135.207031 120.824219 130.25 C 120.460938 129.644531 120.703125 128.917969 121.183594 128.433594 C 121.667969 127.953125 122.394531 127.832031 123.121094 128.191406 C 146.941406 141.613281 161.691406 166.886719 161.691406 194.210938 C 161.691406 235.925781 127.714844 269.902344 86 269.902344 Z M 86 269.902344 " fill-opacity="1" fill-rule="evenodd"/><path fill="#0093c1" d="M 79.347656 153.828125 L 56.859375 153.828125 C 52.75 153.828125 49.363281 150.441406 49.363281 146.328125 C 49.363281 144.152344 50.449219 141.976562 52.265625 140.648438 C 52.75 140.164062 53.59375 140.164062 54.199219 140.527344 C 58.308594 143.671875 63.148438 145.363281 68.226562 145.363281 C 71.128906 145.363281 73.90625 144.878906 76.566406 143.789062 C 76.929688 143.671875 77.535156 143.671875 77.898438 143.910156 C 78.382812 144.152344 78.625 144.515625 78.746094 145 C 79.109375 147.296875 79.832031 149.351562 80.800781 151.410156 C 81.042969 151.890625 81.042969 152.496094 80.800781 152.980469 C 80.4375 153.464844 79.953125 153.828125 79.347656 153.828125 Z M 79.347656 153.828125 " fill-opacity="1" fill-rule="evenodd"/><path fill="#0093c1" d="M 127.714844 177.648438 L 44.285156 177.648438 C 40.292969 177.648438 36.910156 174.382812 36.910156 170.269531 C 36.910156 166.160156 40.292969 162.894531 44.285156 162.894531 L 93.738281 162.894531 C 93.859375 162.894531 93.980469 162.894531 94.222656 163.015625 C 98.816406 164.46875 103.894531 164.46875 108.488281 163.015625 C 108.609375 162.894531 108.851562 162.894531 108.972656 162.894531 L 127.714844 162.894531 C 131.824219 162.894531 135.210938 166.160156 135.210938 170.269531 C 135.210938 174.382812 131.824219 177.648438 127.714844 177.648438 Z M 127.714844 177.648438 " fill-opacity="1" fill-rule="evenodd"/><path fill="#0093c1" d="M 143.070312 201.585938 L 29.050781 201.585938 C 24.9375 201.585938 21.554688 198.324219 21.554688 194.210938 C 21.554688 190.101562 24.9375 186.835938 29.050781 186.835938 L 143.070312 186.835938 C 147.179688 186.835938 150.445312 190.101562 150.445312 194.210938 C 150.445312 198.324219 147.179688 201.585938 143.070312 201.585938 Z M 143.070312 201.585938 " fill-opacity="1" fill-rule="evenodd"/><path fill="#0093c1" d="M 129.042969 225.527344 L 43.074219 225.527344 C 38.964844 225.527344 35.699219 222.140625 35.699219 218.152344 C 35.699219 214.042969 38.964844 210.65625 43.074219 210.65625 L 129.042969 210.65625 C 133.035156 210.65625 136.421875 214.042969 136.421875 218.152344 C 136.421875 222.140625 133.035156 225.527344 129.042969 225.527344 Z M 129.042969 225.527344 " fill-opacity="1" fill-rule="evenodd"/><path fill="#0093c1" d="M 115.261719 249.347656 L 56.859375 249.347656 C 52.75 249.347656 49.363281 246.082031 49.363281 241.972656 C 49.363281 237.980469 52.75 234.597656 56.859375 234.597656 L 115.261719 234.597656 C 119.371094 234.597656 122.636719 237.980469 122.636719 241.972656 C 122.636719 246.082031 119.371094 249.347656 115.261719 249.347656 Z M 115.261719 249.347656 " fill-opacity="1" fill-rule="evenodd"/><path fill="#0093c1" d="M 20.464844 137.382812 C 14.660156 137.382812 10.066406 132.667969 10.066406 126.984375 C 10.066406 121.300781 14.660156 116.585938 20.464844 116.585938 C 26.148438 116.585938 30.742188 121.300781 30.742188 126.984375 C 30.742188 132.667969 26.148438 137.382812 20.464844 137.382812 Z M 20.464844 137.382812 " fill-opacity="1" fill-rule="evenodd"/><path fill="#0093c1" d="M 20.464844 271.714844 C 14.660156 271.714844 10.066406 267.121094 10.066406 261.4375 C 10.066406 255.636719 14.660156 251.039062 20.464844 251.039062 C 26.148438 251.039062 30.742188 255.636719 30.742188 261.4375 C 30.742188 267.121094 26.148438 271.714844 20.464844 271.714844 Z M 20.464844 271.714844 " fill-opacity="1" fill-rule="evenodd"/><path fill="#0093c1" d="M 151.65625 271.714844 C 145.972656 271.714844 141.257812 267.121094 141.257812 261.4375 C 141.257812 255.636719 145.972656 251.039062 151.65625 251.039062 C 157.339844 251.039062 162.054688 255.636719 162.054688 261.4375 C 162.054688 267.121094 157.339844 271.714844 151.65625 271.714844 Z M 151.65625 271.714844 " fill-opacity="1" fill-rule="evenodd"/><path fill="#0093c1" d="M 151.65625 137.382812 C 145.972656 137.382812 141.257812 132.667969 141.257812 126.984375 C 141.257812 121.300781 145.972656 116.585938 151.65625 116.585938 C 157.339844 116.585938 162.054688 121.300781 162.054688 126.984375 C 162.054688 132.667969 157.339844 137.382812 151.65625 137.382812 Z M 151.65625 137.382812 " fill-opacity="1" fill-rule="evenodd"/><g clip-path="url(#7781396918)"><path fill="#8de5ff" d="M 68.226562 148.628906 C 53.835938 148.628906 41.988281 136.777344 41.988281 122.390625 C 41.988281 114.410156 53.109375 96.394531 61.089844 83.214844 C 63.507812 79.464844 65.445312 76.078125 66.773438 73.78125 C 67.378906 72.695312 69.070312 72.695312 69.675781 73.78125 C 71.007812 76.078125 72.941406 79.34375 75.359375 83.214844 C 80.679688 92.039062 87.449219 103.042969 91.320312 111.75 C 91.5625 112.234375 91.441406 112.714844 91.199219 113.199219 C 88.054688 118.519531 78.382812 134.722656 78.382812 141.128906 C 78.382812 142.460938 78.503906 143.789062 78.746094 145 C 78.867188 145.847656 78.382812 146.570312 77.65625 146.8125 C 74.632812 148.023438 71.488281 148.628906 68.226562 148.628906 Z M 68.226562 148.628906 " fill-opacity="1" fill-rule="evenodd"/></g><path fill="#54d8ff" d="M 101.355469 167.367188 C 86.847656 167.367188 75.117188 155.640625 75.117188 141.128906 C 75.117188 133.152344 86.242188 115.132812 94.222656 101.953125 C 96.640625 98.085938 98.574219 94.820312 99.90625 92.523438 C 100.265625 92.039062 100.75 91.675781 101.355469 91.675781 C 101.960938 91.675781 102.445312 92.039062 102.804688 92.523438 C 104.136719 94.820312 106.070312 98.085938 108.488281 101.953125 C 116.46875 115.132812 127.59375 133.152344 127.59375 141.128906 C 127.59375 155.640625 115.742188 167.367188 101.355469 167.367188 Z M 101.355469 167.367188 " fill-opacity="1" fill-rule="evenodd"/><path fill="#3dbfea" d="M 95.453125 172 C 76.332031 172 58.882812 161.53125 49.90625 144.675781 C 41.902344 129.648438 41.898438 111.558594 49.890625 96.285156 L 91.566406 18.027344 C 92.324219 16.605469 93.800781 15.71875 95.410156 15.71875 C 97.019531 15.71875 98.5 16.605469 99.253906 18.027344 L 140.914062 96.257812 C 147.386719 108.410156 148.734375 122.347656 144.714844 135.511719 C 140.695312 148.671875 131.785156 159.484375 119.628906 165.949219 C 112.191406 169.90625 103.828125 172 95.453125 172 Z M 95.453125 172 " fill-opacity="1" fill-rule="nonzero"/><g clip-path="url(#081e02022b)"><path fill="#003f67" d="M 95.410156 20.070312 L 137.070312 98.304688 C 149.316406 121.300781 140.59375 149.867188 117.585938 162.105469 C 110.519531 165.863281 102.929688 167.648438 95.453125 167.648438 C 78.566406 167.648438 62.238281 158.566406 53.75 142.628906 C 46.140625 128.339844 46.769531 111.640625 53.75 98.304688 L 95.410156 20.070312 M 95.410156 11.367188 C 92.191406 11.367188 89.234375 13.140625 87.722656 15.980469 L 46.0625 94.214844 C 46.050781 94.234375 46.042969 94.25 46.03125 94.269531 C 37.371094 110.816406 37.382812 130.425781 46.0625 146.722656 C 55.792969 165 74.71875 176.355469 95.449219 176.355469 C 104.539062 176.355469 113.609375 174.085938 121.675781 169.792969 C 134.859375 162.78125 144.519531 151.054688 148.878906 136.78125 C 153.238281 122.507812 151.777344 107.390625 144.761719 94.214844 L 103.101562 15.980469 C 101.585938 13.140625 98.628906 11.367188 95.410156 11.367188 Z M 95.410156 11.367188 " fill-opacity="1" fill-rule="nonzero"/></g><path fill="#b1deef" d="M 87.816406 64.835938 L 111.636719 109.566406 C 118.640625 122.714844 113.652344 139.046875 100.496094 146.046875 C 87.339844 153.042969 70.996094 148.058594 63.996094 134.910156 C 59.644531 126.738281 60.003906 117.191406 63.996094 109.566406 Z M 87.816406 64.835938 " fill-opacity="1" fill-rule="nonzero"/><path fill="#0093c1" d="M 137.070312 98.304688 L 95.410156 20.070312 L 87.835938 34.296875 L 121.921875 98.304688 C 134.167969 121.300781 125.445312 149.867188 102.4375 162.105469 C 97.746094 164.601562 92.820312 166.210938 87.851562 167.023438 C 97.6875 168.625 108.109375 167.148438 117.585938 162.105469 C 140.59375 149.867188 149.316406 121.300781 137.070312 98.304688 Z M 137.070312 98.304688 " fill-opacity="1" fill-rule="nonzero"/><path fill="#3dbfea" d="M 152.707031 98.382812 C 141.070312 98.382812 130.445312 92.007812 124.980469 81.75 C 120.109375 72.601562 120.101562 61.589844 124.964844 52.300781 L 148.839844 7.46875 C 149.59375 6.050781 151.074219 5.160156 152.683594 5.160156 C 154.292969 5.160156 155.773438 6.050781 156.527344 7.46875 L 180.386719 52.273438 C 184.324219 59.667969 185.148438 68.15625 182.699219 76.167969 C 180.253906 84.183594 174.828125 90.761719 167.429688 94.699219 C 162.898438 97.109375 157.808594 98.382812 152.707031 98.382812 Z M 152.707031 98.382812 " fill-opacity="1" fill-rule="nonzero"/><g clip-path="url(#325ca10850)"><path fill="#003f67" d="M 152.683594 9.515625 L 176.542969 54.316406 C 183.554688 67.488281 178.558594 83.847656 165.382812 90.855469 C 161.335938 93.007812 156.992188 94.03125 152.707031 94.03125 C 143.039062 94.03125 133.683594 88.832031 128.824219 79.703125 C 124.46875 71.519531 124.828125 61.957031 128.824219 54.316406 L 152.683594 9.515625 M 152.683594 0.808594 C 149.464844 0.808594 146.507812 2.582031 144.996094 5.425781 L 121.136719 50.226562 C 121.125 50.246094 121.117188 50.265625 121.105469 50.28125 C 115.578125 60.847656 115.589844 73.375 121.136719 83.792969 C 127.359375 95.476562 139.457031 102.734375 152.707031 102.734375 C 158.519531 102.734375 164.316406 101.285156 169.476562 98.542969 C 177.902344 94.058594 184.078125 86.5625 186.863281 77.4375 C 189.652344 68.3125 188.714844 58.648438 184.230469 50.226562 L 160.371094 5.421875 C 158.859375 2.582031 155.902344 0.808594 152.683594 0.808594 Z M 152.683594 0.808594 " fill-opacity="1" fill-rule="nonzero"/></g><path fill="#b1deef" d="M 148.335938 35.148438 L 161.976562 60.765625 C 165.984375 68.296875 163.128906 77.652344 155.59375 81.660156 C 148.0625 85.667969 138.703125 82.8125 134.691406 75.28125 C 132.199219 70.601562 132.40625 65.132812 134.691406 60.765625 Z M 148.335938 35.148438 " fill-opacity="1" fill-rule="nonzero"/><path fill="#0093c1" d="M 176.542969 54.316406 L 152.683594 9.515625 L 148.34375 17.660156 L 167.867188 54.316406 C 174.878906 67.488281 169.882812 83.847656 156.707031 90.855469 C 154.019531 92.285156 151.199219 93.210938 148.351562 93.671875 C 153.988281 94.589844 159.957031 93.746094 165.382812 90.855469 C 178.558594 83.847656 183.554688 67.488281 176.542969 54.316406 Z M 176.542969 54.316406 " fill-opacity="1" fill-rule="nonzero"/></g></g></svg>